<svg version="1.1" id="Layer_1" xmlns="http://www.w3.org/2000/svg" xmlns:xlink="http://www.w3.org/1999/xlink" x="0px" y="0px"
	 width="100%" viewBox="0 0 1024 1024" enable-background="new 0 0 1024 1024" xml:space="preserve">
<path fill="#000000" opacity="1.000000" stroke="none" 
	d="
M481.349609,549.000122 
	C481.349182,599.163208 481.351166,648.826294 481.344849,698.489380 
	C481.343994,705.333435 481.324951,705.336304 474.537354,705.341431 
	C468.204468,705.346191 461.858887,705.590332 455.542908,705.264221 
	C450.815887,705.020020 449.208527,706.529358 449.246063,711.438232 
	C449.458862,739.267883 449.240936,767.100891 449.449036,794.930664 
	C449.485687,799.835266 448.337158,801.831482 443.087555,801.447632 
	C436.788391,800.987061 430.429749,801.325439 424.096893,801.343994 
	C417.357239,801.363708 417.351532,801.377075 417.349548,808.360718 
	C417.344696,825.359497 417.173767,842.361084 417.451843,859.355286 
	C417.532593,864.289124 415.894958,865.675049 411.167419,865.431458 
	C404.186707,865.071777 397.169128,865.491455 390.175507,865.291199 
	C386.432312,865.184021 385.197235,866.634644 385.289001,870.279968 
	C385.477661,877.774536 385.217102,885.280090 385.388306,892.775574 
	C385.467377,896.235779 384.244415,897.485535 380.750641,897.394958 
	C373.256378,897.200623 365.750061,897.478210 358.255310,897.292847 
	C354.599365,897.202454 353.182983,898.465881 353.285767,902.198853 
	C353.487427,909.526062 353.191010,916.867065 353.400208,924.193848 
	C353.508667,927.992920 352.413391,929.595825 348.324615,929.416687 
	C341.504944,929.117920 334.647766,929.614319 327.834625,929.248779 
	C322.904022,928.984192 320.918884,930.385315 321.241302,935.630249 
	C321.669983,942.603149 321.240936,949.624756 321.383240,956.621216 
	C321.449829,959.895752 320.557892,961.412964 316.903778,961.398743 
	C287.739655,961.285400 258.574738,961.283508 229.410614,961.395691 
	C225.619888,961.410278 224.505905,959.980957 224.605316,956.384216 
	C224.803223,949.223633 224.417923,942.042358 224.746841,934.891418 
	C224.955353,930.358459 223.194962,929.113892 218.942459,929.270935 
	C211.786194,929.535156 204.608749,929.191406 197.448441,929.394043 
	C193.702408,929.500061 192.509720,928.039917 192.606171,924.416321 
	C192.801224,917.088867 192.472443,909.745850 192.727844,902.422119 
	C192.868317,898.394043 191.302628,897.185120 187.476913,897.286194 
	C179.982880,897.484314 172.478058,897.243225 164.980972,897.373047 
	C161.744675,897.429077 160.570694,896.161804 160.627319,892.957520 
	C160.762787,885.293945 160.534500,877.623230 160.709320,869.961304 
	C160.789444,866.449097 159.422668,865.241516 156.014359,865.308899 
	C148.684525,865.453857 141.343094,865.158508 134.019501,865.415894 
	C129.893585,865.560913 128.541718,864.142273 128.584183,860.000366 
	C128.765244,842.336853 128.537537,824.668945 128.746964,807.006042 
	C128.798752,802.636414 127.459396,801.078735 123.056206,801.269409 
	C116.236221,801.564819 109.384026,801.121399 102.564598,801.423096 
	C98.064621,801.622131 96.530563,800.197937 96.563423,795.533508 
	C96.758324,767.870178 96.661888,740.204834 96.659035,712.540161 
	C96.658295,705.369690 96.651169,705.359863 89.595154,705.343811 
	C82.762375,705.328247 75.927979,705.249329 69.097420,705.372070 
	C65.974945,705.428223 64.366531,704.386658 64.658302,701.068176 
	C64.774574,699.745789 64.659058,698.403564 64.659050,697.070374 
	C64.658447,574.245850 64.658363,451.421356 64.660156,328.596832 
	C64.660278,320.663025 64.667244,320.661224 72.402290,320.657532 
	C78.235207,320.654755 84.068146,320.669006 89.901024,320.654449 
	C96.642319,320.637634 96.655128,320.627502 96.656578,313.637360 
	C96.662239,286.306000 96.655342,258.974609 96.661766,231.643250 
	C96.663406,224.668533 96.678024,224.664291 103.853271,224.656311 
	C110.519447,224.648911 117.190331,224.501266 123.849991,224.708862 
	C127.626434,224.826599 128.734085,223.291840 128.709686,219.688080 
	C128.588959,201.856873 128.792938,184.022644 128.565506,166.193527 
	C128.508453,161.720856 129.985092,160.400070 134.305283,160.573822 
	C141.626083,160.868332 148.969162,160.557617 156.299622,160.686523 
	C159.550018,160.743668 160.739273,159.433395 160.689026,156.237381 
	C160.568527,148.573288 160.786407,140.902969 160.611115,133.241043 
	C160.531540,129.762604 161.803055,128.531799 165.255539,128.607147 
	C172.917862,128.774353 180.587906,128.562637 188.251968,128.684586 
	C191.458893,128.735596 192.741394,127.523598 192.689072,124.283600 
	C192.565292,116.619614 192.779190,108.949524 192.613098,101.287178 
	C192.538895,97.863976 193.704437,96.524078 197.211456,96.607376 
	C204.706558,96.785408 212.212143,96.524712 219.707092,96.705856 
	C223.330109,96.793419 224.812103,95.590416 224.712646,91.829109 
	C224.514465,84.335014 224.774246,76.829391 224.614624,69.333435 
	C224.542892,65.966087 225.612793,64.597153 229.163559,64.608902 
	C258.327759,64.705460 287.492676,64.715080 316.656738,64.593544 
	C320.524139,64.577423 321.495239,66.133720 321.400055,69.661491 
	C321.211334,76.655899 321.561157,83.668236 321.264191,90.655121 
	C321.074432,95.119064 322.340454,97.028496 327.132172,96.748154 
	C333.443573,96.378906 339.792633,96.649803 346.125519,96.653000 
	C353.329407,96.656639 353.336884,96.660240 353.346710,103.629021 
	C353.355164,109.628571 353.344635,115.628151 353.341370,121.627716 
	C353.337555,128.650742 353.337036,128.654312 360.596527,128.657974 
	C366.929413,128.661179 373.278229,128.929962 379.589935,128.563141 
	C384.343201,128.286880 385.619995,130.165344 385.425079,134.608383 
	C385.125885,141.428207 385.572479,148.281296 385.257629,155.099716 
	C385.049652,159.603607 386.797577,160.897766 391.076019,160.732666 
	C398.231506,160.456573 405.409943,160.809250 412.569702,160.595581 
	C416.336334,160.483170 417.428345,161.971390 417.401978,165.574509 
	C417.272827,183.238953 417.500153,200.907166 417.240906,218.568756 
	C417.168976,223.469315 418.798431,224.979691 423.550385,224.743256 
	C430.366394,224.404114 437.219940,224.856415 444.041595,224.579514 
	C448.236694,224.409241 449.439667,225.971161 449.419159,230.048218 
	C449.278290,258.045502 449.341400,286.043793 449.343597,314.041779 
	C449.344116,320.637177 449.352448,320.645386 456.010864,320.657043 
	C463.010345,320.669250 470.011719,320.761017 477.008423,320.622284 
	C480.236969,320.558289 481.439575,321.806427 481.381073,325.020752 
	C481.244629,332.517639 481.348206,340.018799 481.348328,347.518250 
	C481.349426,414.512177 481.349182,481.506134 481.349609,549.000122 
M152.458817,800.653015 
	C162.366959,800.737183 161.306274,799.735413 161.335007,809.455383 
	C161.384277,826.120178 161.424210,842.786011 161.275452,859.449707 
	C161.241165,863.288330 162.424072,864.856323 166.424210,864.723267 
	C173.582291,864.485352 180.760239,864.834351 187.917358,864.582336 
	C191.962280,864.439941 193.594330,865.684692 193.421997,869.925476 
	C193.138046,876.913269 193.544952,883.929077 193.265381,890.917236 
	C193.094193,895.195984 194.393448,896.950623 198.896683,896.737915 
	C205.547928,896.423584 212.239655,896.924011 218.885941,896.560974 
	C223.776718,896.293884 225.795181,897.637024 225.457886,902.901001 
	C225.011246,909.871765 225.442474,916.894592 225.299042,923.890991 
	C225.230927,927.214355 226.282364,928.714905 229.860519,928.703369 
	C258.690643,928.610657 287.521240,928.617004 316.351501,928.683777 
	C319.643311,928.691406 320.740845,927.334290 320.691437,924.186462 
	C320.573792,916.689087 320.849060,909.182068 320.588654,901.691956 
	C320.448730,897.667725 321.981537,896.479187 325.810486,896.591675 
	C333.136658,896.807007 340.477539,896.509705 347.804810,896.706116 
	C351.531006,896.805969 352.799988,895.390198 352.712280,891.731262 
	C352.528625,884.069946 352.750122,876.399719 352.636261,868.735657 
	C352.591431,865.716858 353.780396,864.587891 356.761749,864.631897 
	C364.092651,864.740356 371.436768,864.420959 378.755096,864.741577 
	C383.355682,864.943054 384.812012,863.415588 384.750885,858.780640 
	C384.518005,841.118835 384.749268,823.451416 384.596161,805.787842 
	C384.562714,801.928040 385.716705,800.422302 389.709747,800.584717 
	C396.198364,800.848633 402.705536,800.663879 409.204895,800.655518 
	C416.647980,800.645935 416.656891,800.639709 416.658020,793.334045 
	C416.662262,765.670166 416.736572,738.005859 416.579773,710.342834 
	C416.555664,706.093811 417.615784,704.288757 422.158508,704.572266 
	C427.802704,704.924377 433.485596,704.686279 439.151520,704.653564 
	C449.634247,704.593079 448.646912,705.714355 448.648499,695.384949 
	C448.662964,601.061096 448.655914,506.737213 448.655701,412.413330 
	C448.655640,384.416138 448.660919,356.418945 448.655823,328.421753 
	C448.654541,321.374725 448.640564,321.365692 441.385834,321.345490 
	C436.053070,321.330658 430.720123,321.367737 425.387482,321.338776 
	C415.518646,321.285217 416.696533,322.153290 416.676880,312.372192 
	C416.622955,285.541626 416.663116,258.710938 416.656311,231.880295 
	C416.654663,225.379486 416.637421,225.364288 409.936737,225.343048 
	C403.437469,225.322433 396.923706,225.073410 390.443512,225.425293 
	C385.741974,225.680603 384.516144,223.881577 384.569611,219.409897 
	C384.778809,201.914154 384.521271,184.412720 384.747437,166.917389 
	C384.805359,162.437424 383.267883,161.103851 378.973633,161.267426 
	C371.818207,161.539917 364.640656,161.193344 357.480347,161.391937 
	C353.771027,161.494812 352.506042,160.105667 352.602234,156.447510 
	C352.799347,148.953552 352.528595,141.447586 352.707916,133.952728 
	C352.791992,130.439880 351.422516,129.238922 348.014221,129.300842 
	C340.351044,129.440033 332.681885,129.240570 325.018188,129.364655 
	C321.813385,129.416550 320.567566,128.217300 320.625031,124.982986 
	C320.761200,117.319641 320.536377,109.649284 320.709442,101.987457 
	C320.788086,98.506821 319.483337,97.295372 316.047913,97.305115 
	C287.384369,97.386414 258.720337,97.405190 230.056992,97.294823 
	C226.196701,97.279968 225.198563,98.879425 225.293915,102.399635 
	C225.474350,109.060753 225.356949,115.730240 225.343262,122.396210 
	C225.329025,129.323349 225.318680,129.326752 218.630768,129.333923 
	C211.964783,129.341080 205.290176,129.546661 198.635895,129.268875 
	C194.377579,129.091095 193.144928,130.779099 193.275269,134.814148 
	C193.511841,142.138962 193.206665,149.480301 193.387650,156.808304 
	C193.474243,160.314240 192.161423,161.481873 188.715103,161.389771 
	C181.554321,161.198395 174.374069,161.573532 167.222687,161.251892 
	C162.607452,161.044312 161.186157,162.618622 161.247284,167.234329 
	C161.481155,184.896103 161.256165,202.563553 161.404770,220.227188 
	C161.437073,224.068161 160.344894,225.595398 156.295868,225.414047 
	C149.643158,225.116043 142.967438,225.319016 136.301468,225.333023 
	C129.349579,225.347626 129.346024,225.359131 129.345932,232.148148 
	C129.345505,259.312103 129.350113,286.476044 129.346970,313.639984 
	C129.346069,321.339783 129.336899,321.340393 121.889946,321.340515 
	C116.223846,321.340637 110.557739,321.330292 104.891663,321.340302 
	C97.349640,321.353638 97.348801,321.360168 97.348778,329.066528 
	C97.348434,447.054688 97.348373,565.042847 97.348000,683.031006 
	C97.347977,688.697083 97.467857,694.366882 97.299004,700.027954 
	C97.195602,703.494751 98.566849,704.786865 102.007584,704.699646 
	C108.502762,704.534790 115.005058,704.650391 121.504402,704.649719 
	C129.341858,704.648926 129.348419,704.648987 129.348358,712.502869 
	C129.348160,740.000122 129.421707,767.497803 129.258865,794.994080 
	C129.233063,799.349670 130.559998,800.980408 134.972610,800.731812 
	C140.454742,800.422974 145.967346,800.655212 152.458817,800.653015 
z"/>
<path fill="#000000" opacity="1.000000" stroke="none" 
	d="
M704.657227,946.995361 
	C704.656311,942.330994 704.499084,938.156738 704.703003,934.000244 
	C704.873779,930.517944 703.493042,929.244080 700.051453,929.310120 
	C692.554565,929.453979 685.049622,929.212463 677.554321,929.392944 
	C673.932373,929.480103 672.497559,928.273254 672.602783,924.525696 
	C672.813232,917.031921 672.535278,909.524963 672.706787,902.029175 
	C672.785583,898.587524 671.566040,897.233826 668.085266,897.305786 
	C660.755371,897.457397 653.413879,897.163269 646.089172,897.408569 
	C642.042908,897.544189 640.420227,896.299072 640.584900,892.062317 
	C640.863098,884.906738 640.490112,877.726868 640.722351,870.567993 
	C640.847412,866.712036 639.617432,865.144287 635.618347,865.284058 
	C628.960083,865.516663 622.287537,865.347412 615.621033,865.339966 
	C608.690491,865.332275 608.665405,865.328430 608.659851,858.604370 
	C608.646301,842.104736 608.659363,825.605103 608.659363,809.105469 
	C608.659363,801.350769 608.656860,801.346924 600.661621,801.339172 
	C594.828430,801.333496 588.995178,801.351196 583.161987,801.337769 
	C576.691528,801.322876 576.661194,801.312561 576.658386,794.622986 
	C576.646729,767.123596 576.658203,739.624146 576.654114,712.124756 
	C576.653076,705.360718 576.640930,705.352539 569.685364,705.338806 
	C563.185486,705.325989 556.672791,705.082642 550.190186,705.416809 
	C545.664551,705.650085 544.310242,703.893250 544.598022,699.624695 
	C544.888977,695.311157 544.657715,690.962524 544.657654,686.629272 
	C544.656982,567.631836 544.646729,448.634460 544.673340,329.637054 
	C544.675598,319.577637 543.525574,320.748322 553.860413,320.665100 
	C559.693237,320.618134 565.537170,320.440155 571.356506,320.723114 
	C575.615356,320.930206 576.741882,319.201569 576.723572,315.176758 
	C576.596497,287.177948 576.652466,259.178284 576.663330,231.178909 
	C576.665833,224.681793 576.689941,224.671539 583.318176,224.657822 
	C590.151367,224.643692 596.988831,224.506668 603.815979,224.708954 
	C607.555603,224.819763 608.736633,223.361893 608.711304,219.721100 
	C608.587097,201.889038 608.789673,184.053986 608.567871,166.223831 
	C608.512817,161.794373 609.906067,160.388412 614.274536,160.570526 
	C621.594788,160.875687 628.938904,160.558578 636.269714,160.686050 
	C639.492188,160.742065 640.742004,159.493408 640.690186,156.268188 
	C640.566895,148.603806 640.781860,140.933228 640.612549,133.270630 
	C640.536499,129.829132 641.736694,128.523941 645.226685,128.605713 
	C652.722290,128.781357 660.228271,128.520477 667.723450,128.703583 
	C671.364868,128.792542 672.813049,127.551888 672.711426,123.808281 
	C672.512451,116.480606 672.819702,109.138657 672.596436,101.812393 
	C672.479492,97.973152 673.672607,96.439491 677.688782,96.584511 
	C684.845886,96.842957 692.024780,96.484123 699.183472,96.719627 
	C703.217896,96.852364 704.892090,95.604988 704.729553,91.349022 
	C704.456238,84.193054 704.811523,77.014374 704.599365,69.854225 
	C704.487427,66.075302 705.587524,64.563766 709.644043,64.583458 
	C738.476074,64.723381 767.309509,64.729919 796.141357,64.574219 
	C800.443604,64.550987 801.560913,66.173698 801.413513,70.148506 
	C801.166687,76.805923 801.624878,83.494911 801.249939,90.140343 
	C800.971558,95.072952 802.378662,97.115891 807.621033,96.756699 
	C813.758850,96.336136 819.947388,96.651237 826.113892,96.653915 
	C833.337402,96.657059 833.342346,96.660194 833.347412,104.121582 
	C833.351624,110.288101 833.629822,116.472488 833.248596,122.615562 
	C832.939819,127.592094 834.898987,128.971191 839.592163,128.743942 
	C846.409424,128.413834 853.263062,128.863556 860.084412,128.579041 
	C864.336426,128.401703 865.561707,130.063126 865.415283,134.098068 
	C865.161560,141.088760 865.571350,148.105530 865.257568,155.091339 
	C865.055542,159.587189 866.777039,160.900085 871.065552,160.733795 
	C878.221313,160.456345 885.400085,160.808731 892.560303,160.596100 
	C896.315979,160.484558 897.429016,161.950897 897.402466,165.565140 
	C897.273071,183.230469 897.502686,200.899567 897.243835,218.562042 
	C897.172119,223.458054 898.790710,224.966583 903.546387,224.744781 
	C910.697205,224.411316 917.877197,224.760788 925.040894,224.619125 
	C928.300476,224.554642 929.387146,225.862259 929.379333,229.044266 
	C929.306946,258.376740 929.307068,287.709534 929.378052,317.042023 
	C929.385803,320.262634 928.225952,321.459198 924.986633,321.393646 
	C917.323364,321.238647 909.648376,321.163025 901.990784,321.425903 
	C897.832581,321.568604 896.565796,320.088013 896.586853,315.980957 
	C896.729492,288.148987 896.664490,260.315918 896.659180,232.483200 
	C896.657837,225.374451 896.645569,225.362762 889.445618,225.342743 
	C882.779175,225.324203 876.107788,225.181091 869.447998,225.391693 
	C865.696045,225.510345 864.578064,224.028458 864.603699,220.415558 
	C864.730530,202.583542 864.527283,184.748474 864.747559,166.918289 
	C864.802856,162.443130 863.271851,161.101639 858.973328,161.266083 
	C851.817383,161.539841 844.639343,161.192963 837.478333,161.389496 
	C833.763367,161.491455 832.508789,160.083572 832.603699,156.432877 
	C832.798645,148.938232 832.529785,141.431778 832.707947,133.936295 
	C832.791809,130.411026 831.392517,129.238144 827.996399,129.299744 
	C820.332642,129.438766 812.662842,129.238373 804.998596,129.363571 
	C801.774109,129.416245 800.568970,128.174484 800.625305,124.959938 
	C800.759583,117.295914 800.534302,109.624924 800.710022,101.962616 
	C800.790466,98.455879 799.432678,97.295982 796.022522,97.305511 
	C767.356750,97.385590 738.690430,97.406113 710.024841,97.294830 
	C706.129150,97.279701 705.213684,98.949249 705.295532,102.433182 
	C705.463806,109.595695 705.163025,116.771233 705.411316,123.929062 
	C705.550964,127.955750 704.370483,129.622162 700.091125,129.416489 
	C693.606201,129.104813 687.095337,129.324905 680.595459,129.336884 
	C673.346069,129.350235 673.347656,129.358902 673.346436,136.852203 
	C673.345398,143.352051 673.142395,149.860046 673.409485,156.348755 
	C673.575684,160.385971 672.020874,161.532059 668.171631,161.404800 
	C660.846680,161.162643 653.503906,161.482468 646.176147,161.286819 
	C642.436218,161.186996 641.259705,162.635254 641.285645,166.275894 
	C641.412720,184.107910 641.216492,201.942886 641.432312,219.773209 
	C641.485474,224.165222 640.176514,225.645981 635.749634,225.424316 
	C628.933594,225.082977 622.077026,225.568863 615.258362,225.254791 
	C610.695129,225.044601 609.214722,226.535858 609.247620,231.199646 
	C609.442871,258.864319 609.349792,286.531097 609.343445,314.197144 
	C609.341797,321.335602 609.324951,321.337067 602.329285,321.341034 
	C595.996094,321.344635 589.652466,321.566833 583.333252,321.270630 
	C578.877563,321.061768 576.878540,322.337799 577.266479,327.136047 
	C577.641357,331.772339 577.348877,336.462616 577.348816,341.129181 
	C577.347168,459.959930 577.345337,578.790649 577.343506,697.621399 
	C577.343384,704.645813 577.343140,704.650452 584.592957,704.656128 
	C591.092834,704.661255 597.602051,704.866577 604.089172,704.578186 
	C608.344971,704.389038 609.436890,706.074768 609.417236,710.095337 
	C609.280884,738.094055 609.340271,766.093750 609.341614,794.093140 
	C609.341919,800.641113 609.350159,800.648254 616.061707,800.656616 
	C622.894897,800.665161 629.732971,800.811707 636.559326,800.596130 
	C640.314575,800.477661 641.429382,801.950867 641.402344,805.565247 
	C641.270569,823.230530 641.494385,840.899658 641.237549,858.562195 
	C641.166504,863.448730 642.776184,864.972107 647.542114,864.746277 
	C654.692444,864.407532 661.872803,864.760193 669.036499,864.618713 
	C672.291687,864.554443 673.437866,865.850342 673.381348,869.040344 
	C673.245483,876.704407 673.444885,884.374573 673.293945,892.038086 
	C673.225586,895.510254 674.582031,896.769836 678.014282,896.701843 
	C685.677673,896.550110 693.347900,896.752991 701.011963,896.619324 
	C704.242432,896.562988 705.439087,897.804810 705.381287,901.018127 
	C705.243530,908.682068 705.443420,916.352295 705.294983,924.015808 
	C705.228210,927.461731 706.531433,928.712952 709.986633,928.702454 
	C738.652405,928.615540 767.318665,928.614380 795.984436,928.694580 
	C799.397705,928.704102 800.779663,927.548767 800.704895,924.052673 
	C800.544617,916.556396 800.802490,909.050476 800.607300,901.555847 
	C800.512817,897.928162 801.698059,896.487915 805.447876,896.595154 
	C812.774963,896.804749 820.116821,896.499817 827.443787,896.711182 
	C831.276489,896.821716 832.863708,895.609375 832.724121,891.589417 
	C832.481262,884.598083 832.883423,877.582581 832.583801,870.595642 
	C832.393127,866.147217 833.662720,864.286621 838.412109,864.564392 
	C844.723755,864.933472 851.073242,864.664734 857.406433,864.655151 
	C864.642151,864.644226 864.652954,864.637085 864.655945,857.631042 
	C864.663025,840.964722 864.652954,824.298462 864.662109,807.632141 
	C864.665955,800.666748 864.680176,800.662231 871.864563,800.654114 
	C878.364441,800.646729 884.873230,800.443359 891.360962,800.723389 
	C895.624390,800.907349 896.741455,799.192993 896.723206,795.172607 
	C896.596436,767.173767 896.652222,739.174133 896.662964,711.174744 
	C896.665405,704.684692 896.689270,704.673584 903.322937,704.660034 
	C910.322815,704.645813 917.325806,704.780884 924.321167,704.602051 
	C927.815796,704.512756 929.424805,705.422913 929.408020,709.324951 
	C929.282410,738.490417 929.296265,767.656738 929.390198,796.822449 
	C929.401489,800.330933 928.135681,801.480896 924.704224,801.394409 
	C917.375793,801.209595 910.033020,801.528076 902.708618,801.275696 
	C898.549133,801.132324 897.230957,802.630066 897.271667,806.750854 
	C897.446106,824.415405 897.221313,842.084167 897.430847,859.747925 
	C897.482544,864.101562 896.236328,865.641785 891.773315,865.428223 
	C884.623413,865.086121 877.441284,865.476868 870.279724,865.291443 
	C866.649658,865.197510 865.177734,866.415649 865.285889,870.174133 
	C865.492004,877.334656 865.136719,884.513489 865.418030,891.668884 
	C865.585083,895.917419 864.421509,897.674927 859.849060,897.430420 
	C853.035461,897.065918 846.172241,897.621643 839.359680,897.247681 
	C834.375977,896.974060 833.035400,898.919006 833.256897,903.601196 
	C833.587158,910.585266 833.179382,917.601685 833.396790,924.594666 
	C833.514099,928.369141 832.051514,929.498962 828.423523,929.398926 
	C820.929626,929.192261 813.423157,929.465515 805.926941,929.305542 
	C802.421692,929.230713 801.229919,930.616577 801.298523,934.031433 
	C801.452576,941.694763 801.245361,949.364990 801.376526,957.029175 
	C801.431519,960.246460 800.240906,961.395325 796.995911,961.385620 
	C767.663513,961.298157 738.330627,961.301392 708.998169,961.368103 
	C705.782959,961.375427 704.466492,960.199158 704.635437,956.972778 
	C704.800476,953.821167 704.662415,950.653748 704.657227,946.995361 
z"/>
</svg>